<svg viewBox="0 0 24 24" fill="currentColor">
  <path d="M12 21.42l3.684-11.333h-7.368L12 21.42z" fill="#E24329"/>
  <path d="M12 21.42l-3.684-11.333H1.663L12 21.42z" fill="#FC6D26"/>
  <path d="M1.663 10.087L.328 14.044a.462.462 0 0 0 .168.518L12 21.42 1.663 10.087z" fill="#FCA326"/>
  <path d="M1.663 10.087h6.653L6.663 3.726a.231.231 0 0 0-.44 0L1.663 10.087z" fill="#E24329"/>
  <path d="M12 21.42l3.684-11.333h6.653L12 21.42z" fill="#FC6D26"/>
  <path d="M22.337 10.087l1.335 3.957a.462.462 0 0 1-.168.518L12 21.42l10.337-11.333z" fill="#FCA326"/>
  <path d="M22.337 10.087h-6.653l1.653-6.361a.231.231 0 0 1 .44 0l4.56 6.361z" fill="#E24329"/>
</svg>